# xmcd
#
# Track frame offsets:
# 150
# 9930
# 19372
# 31032
# 42072
# 53307
# 68467
# 81790
# 90910
# 103787
# 114300
# 123127
# 134440
# 145302
#
# Disc length: 2064 seconds
#
#
# Revision: 0
# Processed by: cddbd v1.5.1PL2 Copyright (c) Steve Scherf et al.
# Submitted via: FreeRIP 2.944 
#
DISCID=9c080e0e
DTITLE=Pedro Bento e Zé da Estrada - Encontros Sertanejos - Vol. 7
DYEAR=1900
DGENRE=Sertanejo
TTITLE0=Galopeira
TTITLE1=Rosalina
TTITLE2=Homenagem a Mato Grosso
TTITLE3=Esperança perdida
TTITLE4=Guarânia do adeus
TTITLE5=Boiada
TTITLE6=Ânsia de amor
TTITLE7=Esqueça coração
TTITLE8=Falso amor
TTITLE9=Florzinha do campo
TTITLE10=Mariposa do amor
TTITLE11=Fracasso de boêmio
TTITLE12=Casa vazia
TTITLE13=Belezas do araguaia
EXTD=
EXTT0=
EXTT1=
EXTT2=
EXTT3=
EXTT4=
EXTT5=
EXTT6=
EXTT7=
EXTT8=
EXTT9=
EXTT10=
EXTT11=
EXTT12=
EXTT13=
PLAYORDER=
